<mxfile host="app.diagrams.net" agent="Mozilla/5.0 (Windows NT 10.0; Win64; x64) AppleWebKit/537.36 (KHTML, like Gecko) Chrome/128.0.0.0 Safari/537.36" version="24.7.12" pages="2">
  <diagram name="Página-1" id="u3yCye5z1lkyqYJaDnE3">
    <mxGraphModel dx="768" dy="653" grid="1" gridSize="10" guides="1" tooltips="1" connect="1" arrows="1" fold="1" page="1" pageScale="1" pageWidth="827" pageHeight="1169" math="0" shadow="0">
      <root>
        <mxCell id="0" />
        <mxCell id="1" parent="0" />
        <mxCell id="Ivbec9EZwm-0QLfhVYr9-20" style="edgeStyle=orthogonalEdgeStyle;rounded=0;orthogonalLoop=1;jettySize=auto;html=1;" edge="1" parent="1" source="Ivbec9EZwm-0QLfhVYr9-1" target="Ivbec9EZwm-0QLfhVYr9-18">
          <mxGeometry relative="1" as="geometry" />
        </mxCell>
        <mxCell id="Ivbec9EZwm-0QLfhVYr9-1" value="Componente de Interfaz de usuario&amp;nbsp;" style="rounded=1;whiteSpace=wrap;html=1;" vertex="1" parent="1">
          <mxGeometry x="570" y="110" width="120" height="60" as="geometry" />
        </mxCell>
        <mxCell id="Ivbec9EZwm-0QLfhVYr9-13" style="edgeStyle=orthogonalEdgeStyle;rounded=0;orthogonalLoop=1;jettySize=auto;html=1;" edge="1" parent="1" source="Ivbec9EZwm-0QLfhVYr9-2" target="Ivbec9EZwm-0QLfhVYr9-12">
          <mxGeometry relative="1" as="geometry" />
        </mxCell>
        <mxCell id="Ivbec9EZwm-0QLfhVYr9-40" style="edgeStyle=orthogonalEdgeStyle;rounded=0;orthogonalLoop=1;jettySize=auto;html=1;" edge="1" parent="1" source="Ivbec9EZwm-0QLfhVYr9-2" target="Ivbec9EZwm-0QLfhVYr9-5">
          <mxGeometry relative="1" as="geometry" />
        </mxCell>
        <mxCell id="Ivbec9EZwm-0QLfhVYr9-2" value="Componente de Cifrado y Desifrado" style="rounded=1;whiteSpace=wrap;html=1;" vertex="1" parent="1">
          <mxGeometry x="200" y="240" width="120" height="60" as="geometry" />
        </mxCell>
        <mxCell id="Ivbec9EZwm-0QLfhVYr9-6" style="edgeStyle=orthogonalEdgeStyle;rounded=0;orthogonalLoop=1;jettySize=auto;html=1;" edge="1" parent="1" source="Ivbec9EZwm-0QLfhVYr9-3" target="Ivbec9EZwm-0QLfhVYr9-2">
          <mxGeometry relative="1" as="geometry">
            <Array as="points">
              <mxPoint x="360" y="400" />
              <mxPoint x="360" y="270" />
            </Array>
          </mxGeometry>
        </mxCell>
        <mxCell id="Ivbec9EZwm-0QLfhVYr9-3" value="Componente de Gestion de Claves" style="rounded=1;whiteSpace=wrap;html=1;" vertex="1" parent="1">
          <mxGeometry x="430" y="370" width="120" height="60" as="geometry" />
        </mxCell>
        <mxCell id="Ivbec9EZwm-0QLfhVYr9-39" style="edgeStyle=orthogonalEdgeStyle;rounded=0;orthogonalLoop=1;jettySize=auto;html=1;" edge="1" parent="1" source="Ivbec9EZwm-0QLfhVYr9-4" target="Ivbec9EZwm-0QLfhVYr9-2">
          <mxGeometry relative="1" as="geometry" />
        </mxCell>
        <mxCell id="Ivbec9EZwm-0QLfhVYr9-4" value="Componente de Comunicacion" style="rounded=1;whiteSpace=wrap;html=1;" vertex="1" parent="1">
          <mxGeometry x="200" y="110" width="120" height="60" as="geometry" />
        </mxCell>
        <mxCell id="Ivbec9EZwm-0QLfhVYr9-35" style="edgeStyle=orthogonalEdgeStyle;rounded=0;orthogonalLoop=1;jettySize=auto;html=1;" edge="1" parent="1" source="Ivbec9EZwm-0QLfhVYr9-5" target="Ivbec9EZwm-0QLfhVYr9-14">
          <mxGeometry relative="1" as="geometry" />
        </mxCell>
        <mxCell id="Ivbec9EZwm-0QLfhVYr9-5" value="Componente de Almacenamiento de Mensajes" style="rounded=1;whiteSpace=wrap;html=1;" vertex="1" parent="1">
          <mxGeometry x="30" y="240" width="120" height="60" as="geometry" />
        </mxCell>
        <mxCell id="Ivbec9EZwm-0QLfhVYr9-33" style="edgeStyle=orthogonalEdgeStyle;rounded=0;orthogonalLoop=1;jettySize=auto;html=1;" edge="1" parent="1" source="Ivbec9EZwm-0QLfhVYr9-12" target="Ivbec9EZwm-0QLfhVYr9-23">
          <mxGeometry relative="1" as="geometry">
            <Array as="points">
              <mxPoint x="830" y="510" />
              <mxPoint x="830" y="260" />
            </Array>
          </mxGeometry>
        </mxCell>
        <mxCell id="Ivbec9EZwm-0QLfhVYr9-12" value="Componente de visualizacion de mensajes" style="rounded=1;whiteSpace=wrap;html=1;" vertex="1" parent="1">
          <mxGeometry x="200" y="480" width="120" height="60" as="geometry" />
        </mxCell>
        <mxCell id="Ivbec9EZwm-0QLfhVYr9-14" value="Base de datos" style="rounded=1;whiteSpace=wrap;html=1;" vertex="1" parent="1">
          <mxGeometry x="30" y="110" width="120" height="60" as="geometry" />
        </mxCell>
        <mxCell id="Ivbec9EZwm-0QLfhVYr9-36" style="edgeStyle=orthogonalEdgeStyle;rounded=0;orthogonalLoop=1;jettySize=auto;html=1;entryX=1;entryY=0.5;entryDx=0;entryDy=0;" edge="1" parent="1" source="Ivbec9EZwm-0QLfhVYr9-16" target="Ivbec9EZwm-0QLfhVYr9-18">
          <mxGeometry relative="1" as="geometry">
            <Array as="points">
              <mxPoint x="650" y="290" />
            </Array>
          </mxGeometry>
        </mxCell>
        <mxCell id="Ivbec9EZwm-0QLfhVYr9-16" value="Clave" style="rounded=1;whiteSpace=wrap;html=1;" vertex="1" parent="1">
          <mxGeometry x="590" y="370" width="120" height="60" as="geometry" />
        </mxCell>
        <mxCell id="Ivbec9EZwm-0QLfhVYr9-19" style="edgeStyle=orthogonalEdgeStyle;rounded=0;orthogonalLoop=1;jettySize=auto;html=1;" edge="1" parent="1" source="Ivbec9EZwm-0QLfhVYr9-18" target="Ivbec9EZwm-0QLfhVYr9-4">
          <mxGeometry relative="1" as="geometry">
            <Array as="points">
              <mxPoint x="400" y="290" />
              <mxPoint x="400" y="140" />
            </Array>
          </mxGeometry>
        </mxCell>
        <mxCell id="Ivbec9EZwm-0QLfhVYr9-34" style="edgeStyle=orthogonalEdgeStyle;rounded=0;orthogonalLoop=1;jettySize=auto;html=1;" edge="1" parent="1" source="Ivbec9EZwm-0QLfhVYr9-18" target="Ivbec9EZwm-0QLfhVYr9-14">
          <mxGeometry relative="1" as="geometry">
            <Array as="points">
              <mxPoint x="450" y="10" />
              <mxPoint x="70" y="10" />
            </Array>
          </mxGeometry>
        </mxCell>
        <mxCell id="Ivbec9EZwm-0QLfhVYr9-37" style="edgeStyle=orthogonalEdgeStyle;rounded=0;orthogonalLoop=1;jettySize=auto;html=1;" edge="1" parent="1" source="Ivbec9EZwm-0QLfhVYr9-18" target="Ivbec9EZwm-0QLfhVYr9-3">
          <mxGeometry relative="1" as="geometry" />
        </mxCell>
        <mxCell id="Ivbec9EZwm-0QLfhVYr9-18" value="Componente validaciones&amp;nbsp;" style="rounded=1;whiteSpace=wrap;html=1;" vertex="1" parent="1">
          <mxGeometry x="430" y="260" width="120" height="60" as="geometry" />
        </mxCell>
        <mxCell id="Ivbec9EZwm-0QLfhVYr9-31" style="edgeStyle=orthogonalEdgeStyle;rounded=0;orthogonalLoop=1;jettySize=auto;html=1;entryX=1;entryY=0.5;entryDx=0;entryDy=0;" edge="1" parent="1" source="Ivbec9EZwm-0QLfhVYr9-23" target="Ivbec9EZwm-0QLfhVYr9-16">
          <mxGeometry relative="1" as="geometry">
            <Array as="points">
              <mxPoint x="780" y="400" />
            </Array>
          </mxGeometry>
        </mxCell>
        <mxCell id="Ivbec9EZwm-0QLfhVYr9-32" style="edgeStyle=orthogonalEdgeStyle;rounded=0;orthogonalLoop=1;jettySize=auto;html=1;entryX=1;entryY=0.5;entryDx=0;entryDy=0;" edge="1" parent="1" source="Ivbec9EZwm-0QLfhVYr9-23" target="Ivbec9EZwm-0QLfhVYr9-1">
          <mxGeometry relative="1" as="geometry">
            <Array as="points">
              <mxPoint x="765" y="140" />
            </Array>
          </mxGeometry>
        </mxCell>
        <mxCell id="Ivbec9EZwm-0QLfhVYr9-23" value="Actor" style="shape=umlActor;verticalLabelPosition=bottom;verticalAlign=top;html=1;outlineConnect=0;" vertex="1" parent="1">
          <mxGeometry x="750" y="230" width="30" height="60" as="geometry" />
        </mxCell>
      </root>
    </mxGraphModel>
  </diagram>
  <diagram id="TXSyj_PdHCzAvVK5aOtI" name="Página-2">
    <mxGraphModel dx="1886" dy="780" grid="1" gridSize="10" guides="1" tooltips="1" connect="1" arrows="1" fold="1" page="1" pageScale="1" pageWidth="827" pageHeight="1169" math="0" shadow="0">
      <root>
        <mxCell id="0" />
        <mxCell id="1" parent="0" />
        <mxCell id="2wBirmb9ZrbFHNxYtRje-7" value="" style="rounded=1;whiteSpace=wrap;html=1;" vertex="1" parent="1">
          <mxGeometry x="54" y="50" width="1076" height="510" as="geometry" />
        </mxCell>
        <mxCell id="2wBirmb9ZrbFHNxYtRje-13" style="edgeStyle=orthogonalEdgeStyle;rounded=0;orthogonalLoop=1;jettySize=auto;html=1;" edge="1" parent="1" source="2wBirmb9ZrbFHNxYtRje-1" target="2wBirmb9ZrbFHNxYtRje-8">
          <mxGeometry relative="1" as="geometry" />
        </mxCell>
        <mxCell id="2wBirmb9ZrbFHNxYtRje-1" value="" style="rounded=1;whiteSpace=wrap;html=1;fillColor=#dae8fc;strokeColor=#6c8ebf;" vertex="1" parent="1">
          <mxGeometry x="80" y="120" width="120" height="360" as="geometry" />
        </mxCell>
        <mxCell id="2wBirmb9ZrbFHNxYtRje-2" value="Usuario&lt;div&gt;&lt;br&gt;&lt;/div&gt;&lt;div&gt;&lt;br&gt;&lt;/div&gt;" style="shape=umlActor;verticalLabelPosition=bottom;verticalAlign=top;html=1;outlineConnect=0;" vertex="1" parent="1">
          <mxGeometry x="125" y="270" width="30" height="60" as="geometry" />
        </mxCell>
        <mxCell id="2wBirmb9ZrbFHNxYtRje-4" value="Administrador" style="shape=umlActor;verticalLabelPosition=bottom;verticalAlign=top;html=1;outlineConnect=0;" vertex="1" parent="1">
          <mxGeometry x="125" y="170" width="30" height="60" as="geometry" />
        </mxCell>
        <mxCell id="2wBirmb9ZrbFHNxYtRje-5" value="Actores" style="text;html=1;align=center;verticalAlign=middle;resizable=0;points=[];autosize=1;strokeColor=none;fillColor=none;" vertex="1" parent="1">
          <mxGeometry x="110" y="120" width="60" height="30" as="geometry" />
        </mxCell>
        <mxCell id="2wBirmb9ZrbFHNxYtRje-6" value="Invitado" style="shape=umlActor;verticalLabelPosition=bottom;verticalAlign=top;html=1;outlineConnect=0;" vertex="1" parent="1">
          <mxGeometry x="125" y="370" width="30" height="60" as="geometry" />
        </mxCell>
        <mxCell id="2wBirmb9ZrbFHNxYtRje-8" value="" style="rounded=1;whiteSpace=wrap;html=1;fillColor=#d5e8d4;strokeColor=#82b366;" vertex="1" parent="1">
          <mxGeometry x="250" y="135" width="140" height="330" as="geometry" />
        </mxCell>
        <mxCell id="2wBirmb9ZrbFHNxYtRje-9" value="Dispositivo" style="text;html=1;align=center;verticalAlign=middle;resizable=0;points=[];autosize=1;strokeColor=none;fillColor=none;" vertex="1" parent="1">
          <mxGeometry x="280" y="135" width="80" height="30" as="geometry" />
        </mxCell>
        <mxCell id="2wBirmb9ZrbFHNxYtRje-10" value="" style="fontColor=#0066CC;verticalAlign=top;verticalLabelPosition=bottom;labelPosition=center;align=center;html=1;outlineConnect=0;fillColor=#CCCCCC;strokeColor=#6881B3;gradientColor=none;gradientDirection=north;strokeWidth=2;shape=mxgraph.networks.pc;" vertex="1" parent="1">
          <mxGeometry x="270" y="190" width="100" height="70" as="geometry" />
        </mxCell>
        <mxCell id="2wBirmb9ZrbFHNxYtRje-12" value="" style="shape=mxgraph.cisco.computers_and_peripherals.laptop;html=1;pointerEvents=1;dashed=0;fillColor=#036897;strokeColor=#ffffff;strokeWidth=2;verticalLabelPosition=bottom;verticalAlign=top;align=center;outlineConnect=0;" vertex="1" parent="1">
          <mxGeometry x="275" y="340" width="90" height="61" as="geometry" />
        </mxCell>
        <mxCell id="2wBirmb9ZrbFHNxYtRje-14" value="Internet" style="ellipse;shape=cloud;whiteSpace=wrap;html=1;" vertex="1" parent="1">
          <mxGeometry x="430" y="270" width="80" height="60" as="geometry" />
        </mxCell>
        <mxCell id="2wBirmb9ZrbFHNxYtRje-15" style="edgeStyle=orthogonalEdgeStyle;rounded=0;orthogonalLoop=1;jettySize=auto;html=1;entryX=0;entryY=0.5;entryDx=0;entryDy=0;entryPerimeter=0;" edge="1" parent="1" source="2wBirmb9ZrbFHNxYtRje-8" target="2wBirmb9ZrbFHNxYtRje-14">
          <mxGeometry relative="1" as="geometry" />
        </mxCell>
        <mxCell id="2wBirmb9ZrbFHNxYtRje-19" style="edgeStyle=orthogonalEdgeStyle;rounded=0;orthogonalLoop=1;jettySize=auto;html=1;startArrow=classic;startFill=1;endArrow=none;endFill=0;" edge="1" parent="1" source="2wBirmb9ZrbFHNxYtRje-16" target="2wBirmb9ZrbFHNxYtRje-14">
          <mxGeometry relative="1" as="geometry" />
        </mxCell>
        <mxCell id="2wBirmb9ZrbFHNxYtRje-21" style="edgeStyle=orthogonalEdgeStyle;rounded=0;orthogonalLoop=1;jettySize=auto;html=1;entryX=0;entryY=0.5;entryDx=0;entryDy=0;" edge="1" parent="1" source="2wBirmb9ZrbFHNxYtRje-16" target="2wBirmb9ZrbFHNxYtRje-20">
          <mxGeometry relative="1" as="geometry" />
        </mxCell>
        <mxCell id="2wBirmb9ZrbFHNxYtRje-16" value="EMNA" style="shape=module;align=left;spacingLeft=20;align=center;verticalAlign=top;whiteSpace=wrap;html=1;" vertex="1" parent="1">
          <mxGeometry x="540" y="275" width="100" height="50" as="geometry" />
        </mxCell>
        <mxCell id="2wBirmb9ZrbFHNxYtRje-20" value="" style="rounded=1;whiteSpace=wrap;html=1;fillColor=#e1d5e7;strokeColor=#9673a6;" vertex="1" parent="1">
          <mxGeometry x="680" y="77.5" width="420" height="445" as="geometry" />
        </mxCell>
        <mxCell id="2wBirmb9ZrbFHNxYtRje-22" value="Base de datos" style="shape=module;align=left;spacingLeft=20;align=center;verticalAlign=top;whiteSpace=wrap;html=1;" vertex="1" parent="1">
          <mxGeometry x="710" y="125" width="100" height="50" as="geometry" />
        </mxCell>
        <mxCell id="2wBirmb9ZrbFHNxYtRje-23" value="Baul de llaves&amp;nbsp;" style="shape=module;align=left;spacingLeft=20;align=center;verticalAlign=top;whiteSpace=wrap;html=1;" vertex="1" parent="1">
          <mxGeometry x="710" y="190" width="100" height="50" as="geometry" />
        </mxCell>
        <mxCell id="2wBirmb9ZrbFHNxYtRje-24" value="Catalogo de mensajes usuario/tecnico&lt;div&gt;&lt;br&gt;&lt;/div&gt;" style="shape=module;align=left;spacingLeft=20;align=center;verticalAlign=top;whiteSpace=wrap;html=1;" vertex="1" parent="1">
          <mxGeometry x="710" y="255" width="100" height="50" as="geometry" />
        </mxCell>
        <mxCell id="2wBirmb9ZrbFHNxYtRje-25" value="Catalogo de parametros" style="shape=module;align=left;spacingLeft=20;align=center;verticalAlign=top;whiteSpace=wrap;html=1;" vertex="1" parent="1">
          <mxGeometry x="710" y="320" width="100" height="50" as="geometry" />
        </mxCell>
        <mxCell id="2wBirmb9ZrbFHNxYtRje-26" value="&lt;span style=&quot;color: rgb(0, 0, 0); font-family: Helvetica; font-size: 12px; font-style: normal; font-variant-ligatures: normal; font-variant-caps: normal; font-weight: 400; letter-spacing: normal; orphans: 2; text-align: center; text-indent: 0px; text-transform: none; widows: 2; word-spacing: 0px; -webkit-text-stroke-width: 0px; white-space: normal; background-color: rgb(251, 251, 251); text-decoration-thickness: initial; text-decoration-style: initial; text-decoration-color: initial; display: inline !important; float: none;&quot;&gt;Provedor de identidades&lt;/span&gt;&lt;div&gt;&lt;br/&gt;&lt;/div&gt;" style="shape=module;align=left;spacingLeft=20;align=center;verticalAlign=top;whiteSpace=wrap;html=1;" vertex="1" parent="1">
          <mxGeometry x="710" y="450" width="100" height="50" as="geometry" />
        </mxCell>
        <mxCell id="2wBirmb9ZrbFHNxYtRje-27" value="Componentes de logging&amp;nbsp;" style="shape=module;align=left;spacingLeft=20;align=center;verticalAlign=top;whiteSpace=wrap;html=1;" vertex="1" parent="1">
          <mxGeometry x="710" y="385" width="100" height="50" as="geometry" />
        </mxCell>
        <mxCell id="2wBirmb9ZrbFHNxYtRje-30" value="Componente de notificaciones" style="shape=module;align=left;spacingLeft=20;align=center;verticalAlign=top;whiteSpace=wrap;html=1;" vertex="1" parent="1">
          <mxGeometry x="840" y="120" width="100" height="50" as="geometry" />
        </mxCell>
        <mxCell id="2wBirmb9ZrbFHNxYtRje-31" value="Caché distribuida" style="shape=module;align=left;spacingLeft=20;align=center;verticalAlign=top;whiteSpace=wrap;html=1;" vertex="1" parent="1">
          <mxGeometry x="840" y="185" width="100" height="50" as="geometry" />
        </mxCell>
        <mxCell id="2wBirmb9ZrbFHNxYtRje-32" value="&#xa;Rate Limiter&#xa;&#xa;" style="shape=module;align=left;spacingLeft=20;align=center;verticalAlign=top;whiteSpace=wrap;html=1;" vertex="1" parent="1">
          <mxGeometry x="840" y="250" width="100" height="50" as="geometry" />
        </mxCell>
        <mxCell id="2wBirmb9ZrbFHNxYtRje-33" value="WAF&amp;nbsp;" style="shape=module;align=left;spacingLeft=20;align=center;verticalAlign=top;whiteSpace=wrap;html=1;" vertex="1" parent="1">
          <mxGeometry x="840" y="315" width="100" height="50" as="geometry" />
        </mxCell>
        <mxCell id="2wBirmb9ZrbFHNxYtRje-34" value="" style="shape=module;align=left;spacingLeft=20;align=center;verticalAlign=top;whiteSpace=wrap;html=1;" vertex="1" parent="1">
          <mxGeometry x="840" y="385" width="100" height="50" as="geometry" />
        </mxCell>
        <mxCell id="2wBirmb9ZrbFHNxYtRje-35" value="" style="shape=module;align=left;spacingLeft=20;align=center;verticalAlign=top;whiteSpace=wrap;html=1;" vertex="1" parent="1">
          <mxGeometry x="840" y="450" width="100" height="50" as="geometry" />
        </mxCell>
        <mxCell id="2wBirmb9ZrbFHNxYtRje-42" value="" style="shape=module;align=left;spacingLeft=20;align=center;verticalAlign=top;whiteSpace=wrap;html=1;" vertex="1" parent="1">
          <mxGeometry x="960" y="120" width="100" height="50" as="geometry" />
        </mxCell>
        <mxCell id="2wBirmb9ZrbFHNxYtRje-43" value="" style="shape=module;align=left;spacingLeft=20;align=center;verticalAlign=top;whiteSpace=wrap;html=1;" vertex="1" parent="1">
          <mxGeometry x="960" y="185" width="100" height="50" as="geometry" />
        </mxCell>
        <mxCell id="2wBirmb9ZrbFHNxYtRje-44" value="" style="shape=module;align=left;spacingLeft=20;align=center;verticalAlign=top;whiteSpace=wrap;html=1;" vertex="1" parent="1">
          <mxGeometry x="960" y="250" width="100" height="50" as="geometry" />
        </mxCell>
        <mxCell id="2wBirmb9ZrbFHNxYtRje-45" value="" style="shape=module;align=left;spacingLeft=20;align=center;verticalAlign=top;whiteSpace=wrap;html=1;" vertex="1" parent="1">
          <mxGeometry x="960" y="315" width="100" height="50" as="geometry" />
        </mxCell>
        <mxCell id="2wBirmb9ZrbFHNxYtRje-46" value="" style="shape=module;align=left;spacingLeft=20;align=center;verticalAlign=top;whiteSpace=wrap;html=1;" vertex="1" parent="1">
          <mxGeometry x="960" y="385" width="100" height="50" as="geometry" />
        </mxCell>
        <mxCell id="2wBirmb9ZrbFHNxYtRje-47" value="" style="shape=module;align=left;spacingLeft=20;align=center;verticalAlign=top;whiteSpace=wrap;html=1;" vertex="1" parent="1">
          <mxGeometry x="960" y="450" width="100" height="50" as="geometry" />
        </mxCell>
        <mxCell id="2wBirmb9ZrbFHNxYtRje-49" value="Bloques de construccion" style="text;html=1;align=center;verticalAlign=middle;resizable=0;points=[];autosize=1;strokeColor=none;fillColor=none;" vertex="1" parent="1">
          <mxGeometry x="810" y="77.5" width="160" height="30" as="geometry" />
        </mxCell>
      </root>
    </mxGraphModel>
  </diagram>
</mxfile>
